<svg width="33" height="32" viewBox="0 0 33 32" fill="none" xmlns="http://www.w3.org/2000/svg">
<g id="icon">
<g id="Ellipse 14" filter="url(#filter0_di_1_74)">
<circle cx="14" cy="10.5" r="6.99999" fill="#FBCA1C"/>
<circle cx="14" cy="10.5" r="6.99999" fill="url(#paint0_radial_1_74)" fill-opacity="0.2"/>
</g>
<g id="Union" filter="url(#filter1_di_1_74)">
<path d="M27.657 14.8333C27.6634 14.723 27.6666 14.6119 27.6666 14.5C27.6666 11.3704 25.1296 8.83334 22 8.83334C20.494 8.83334 19.1253 9.4208 18.1104 10.3791C17.597 10.2406 17.0571 10.1667 16.5 10.1667C14.4849 10.1667 12.6955 11.1332 11.5702 12.628C11.2272 12.5444 10.8688 12.5 10.5 12.5C8.01471 12.5 6 14.5147 6 17C6 17.0116 6.00004 17.0232 6.00012 17.0347C6.00004 17.0429 6 17.051 6 17.0591C6 20.064 8.43595 22.5 11.4409 22.5H20C24.2342 22.5 27.6666 19.0675 27.6666 14.8333H27.657Z" fill="white"/>
<path d="M27.657 14.8333C27.6634 14.723 27.6666 14.6119 27.6666 14.5C27.6666 11.3704 25.1296 8.83334 22 8.83334C20.494 8.83334 19.1253 9.4208 18.1104 10.3791C17.597 10.2406 17.0571 10.1667 16.5 10.1667C14.4849 10.1667 12.6955 11.1332 11.5702 12.628C11.2272 12.5444 10.8688 12.5 10.5 12.5C8.01471 12.5 6 14.5147 6 17C6 17.0116 6.00004 17.0232 6.00012 17.0347C6.00004 17.0429 6 17.051 6 17.0591C6 20.064 8.43595 22.5 11.4409 22.5H20C24.2342 22.5 27.6666 19.0675 27.6666 14.8333H27.657Z" fill="url(#paint1_radial_1_74)" fill-opacity="0.2"/>
</g>
</g>
<defs>
<filter id="filter0_di_1_74" x="4.33334" y="0.833336" width="19.3333" height="19.3333" filterUnits="userSpaceOnUse" color-interpolation-filters="sRGB">
<feFlood flood-opacity="0" result="BackgroundImageFix"/>
<feColorMatrix in="SourceAlpha" type="matrix" values="0 0 0 0 0 0 0 0 0 0 0 0 0 0 0 0 0 0 127 0" result="hardAlpha"/>
<feMorphology radius="0.999999" operator="dilate" in="SourceAlpha" result="effect1_dropShadow_1_74"/>
<feOffset/>
<feGaussianBlur stdDeviation="0.833332"/>
<feComposite in2="hardAlpha" operator="out"/>
<feColorMatrix type="matrix" values="0 0 0 0 0.984314 0 0 0 0 0.792157 0 0 0 0 0.109804 0 0 0 0.2 0"/>
<feBlend mode="normal" in2="BackgroundImageFix" result="effect1_dropShadow_1_74"/>
<feBlend mode="normal" in="SourceGraphic" in2="effect1_dropShadow_1_74" result="shape"/>
<feColorMatrix in="SourceAlpha" type="matrix" values="0 0 0 0 0 0 0 0 0 0 0 0 0 0 0 0 0 0 127 0" result="hardAlpha"/>
<feOffset/>
<feGaussianBlur stdDeviation="1.5"/>
<feComposite in2="hardAlpha" operator="arithmetic" k2="-1" k3="1"/>
<feColorMatrix type="matrix" values="0 0 0 0 0.984314 0 0 0 0 0.529569 0 0 0 0 0.109804 0 0 0 0.5 0"/>
<feBlend mode="normal" in2="shape" result="effect2_innerShadow_1_74"/>
</filter>
<filter id="filter1_di_1_74" x="0.666673" y="6.83335" width="32.3333" height="24.3333" filterUnits="userSpaceOnUse" color-interpolation-filters="sRGB">
<feFlood flood-opacity="0" result="BackgroundImageFix"/>
<feColorMatrix in="SourceAlpha" type="matrix" values="0 0 0 0 0 0 0 0 0 0 0 0 0 0 0 0 0 0 127 0" result="hardAlpha"/>
<feOffset dy="3.33333"/>
<feGaussianBlur stdDeviation="2.66666"/>
<feComposite in2="hardAlpha" operator="out"/>
<feColorMatrix type="matrix" values="0 0 0 0 0.301961 0 0 0 0 0.368627 0 0 0 0 0.435294 0 0 0 0.08 0"/>
<feBlend mode="normal" in2="BackgroundImageFix" result="effect1_dropShadow_1_74"/>
<feBlend mode="normal" in="SourceGraphic" in2="effect1_dropShadow_1_74" result="shape"/>
<feColorMatrix in="SourceAlpha" type="matrix" values="0 0 0 0 0 0 0 0 0 0 0 0 0 0 0 0 0 0 127 0" result="hardAlpha"/>
<feOffset/>
<feGaussianBlur stdDeviation="0.999999"/>
<feComposite in2="hardAlpha" operator="arithmetic" k2="-1" k3="1"/>
<feColorMatrix type="matrix" values="0 0 0 0 0.301961 0 0 0 0 0.368627 0 0 0 0 0.435294 0 0 0 0.08 0"/>
<feBlend mode="normal" in2="shape" result="effect2_innerShadow_1_74"/>
</filter>
<radialGradient id="paint0_radial_1_74" cx="0" cy="0" r="1" gradientUnits="userSpaceOnUse" gradientTransform="translate(12.3333 7.83333) rotate(50.7106) scale(9.4751 6.61925)">
<stop stop-color="#FBCA1C"/>
<stop offset="1" stop-color="#E4750E"/>
</radialGradient>
<radialGradient id="paint1_radial_1_74" cx="0" cy="0" r="1" gradientUnits="userSpaceOnUse" gradientTransform="translate(21.1667 10.1667) rotate(121.827) scale(17.066 27.0559)">
<stop stop-opacity="0"/>
<stop offset="1" stop-color="#4D5E6F"/>
</radialGradient>
</defs>
</svg>
